<svg xmlns="http://www.w3.org/2000/svg" version="1.1" height="85.26666666666672px" width="575.6666666666666px" viewBox="-10 -10 595.6666666666666 105.26666666666672" content="&lt;mxGraphModel dx=&quot;1479&quot; dy=&quot;815&quot; grid=&quot;1&quot; gridSize=&quot;10&quot; guides=&quot;1&quot; tooltips=&quot;1&quot; connect=&quot;1&quot; arrows=&quot;1&quot; fold=&quot;1&quot; page=&quot;0&quot; pageScale=&quot;1&quot; pageWidth=&quot;827&quot; pageHeight=&quot;1169&quot; math=&quot;0&quot; shadow=&quot;0&quot;&gt;&lt;root&gt;&lt;mxCell id=&quot;0&quot;/&gt;&lt;mxCell id=&quot;1&quot; parent=&quot;0&quot;/&gt;&lt;mxCell id=&quot;37&quot; value=&quot;&quot; style=&quot;html=1;dashed=0;whitespace=wrap;shape=partialRectangle;right=0;left=0;fillColor=#2A2A2A00;&quot; vertex=&quot;1&quot; parent=&quot;1&quot;&gt;&lt;mxGeometry x=&quot;-160&quot; y=&quot;200&quot; width=&quot;440&quot; height=&quot;80&quot; as=&quot;geometry&quot;/&gt;&lt;/mxCell&gt;&lt;mxCell id=&quot;42&quot; value=&quot;&quot; style=&quot;endArrow=none;html=1;exitX=0.131;exitY=1.03;exitDx=0;exitDy=0;exitPerimeter=0;&quot; edge=&quot;1&quot; parent=&quot;1&quot;&gt;&lt;mxGeometry width=&quot;50&quot; height=&quot;50&quot; relative=&quot;1&quot; as=&quot;geometry&quot;&gt;&lt;mxPoint x=&quot;-40.999999999999865&quot; y=&quot;282.39999999999986&quot; as=&quot;sourcePoint&quot;/&gt;&lt;mxPoint x=&quot;-39.6&quot; y=&quot;200&quot; as=&quot;targetPoint&quot;/&gt;&lt;/mxGeometry&gt;&lt;/mxCell&gt;&lt;mxCell id=&quot;43&quot; value=&quot;&quot; style=&quot;endArrow=none;html=1;exitX=0.131;exitY=1.03;exitDx=0;exitDy=0;exitPerimeter=0;&quot; edge=&quot;1&quot; parent=&quot;1&quot;&gt;&lt;mxGeometry width=&quot;50&quot; height=&quot;50&quot; relative=&quot;1&quot; as=&quot;geometry&quot;&gt;&lt;mxPoint x=&quot;1.3500311979441904e-13&quot; y=&quot;282.39999999999986&quot; as=&quot;sourcePoint&quot;/&gt;&lt;mxPoint x=&quot;1.3999999999999986&quot; y=&quot;200&quot; as=&quot;targetPoint&quot;/&gt;&lt;/mxGeometry&gt;&lt;/mxCell&gt;&lt;mxCell id=&quot;44&quot; value=&quot;&quot; style=&quot;endArrow=none;html=1;exitX=0.131;exitY=1.03;exitDx=0;exitDy=0;exitPerimeter=0;&quot; edge=&quot;1&quot; parent=&quot;1&quot;&gt;&lt;mxGeometry width=&quot;50&quot; height=&quot;50&quot; relative=&quot;1&quot; as=&quot;geometry&quot;&gt;&lt;mxPoint x=&quot;40.000000000000135&quot; y=&quot;282.39999999999986&quot; as=&quot;sourcePoint&quot;/&gt;&lt;mxPoint x=&quot;41.4&quot; y=&quot;200&quot; as=&quot;targetPoint&quot;/&gt;&lt;/mxGeometry&gt;&lt;/mxCell&gt;&lt;mxCell id=&quot;45&quot; value=&quot;&quot; style=&quot;endArrow=none;html=1;exitX=0.131;exitY=1.03;exitDx=0;exitDy=0;exitPerimeter=0;&quot; edge=&quot;1&quot; parent=&quot;1&quot;&gt;&lt;mxGeometry width=&quot;50&quot; height=&quot;50&quot; relative=&quot;1&quot; as=&quot;geometry&quot;&gt;&lt;mxPoint x=&quot;80.00000000000014&quot; y=&quot;281.9999999999999&quot; as=&quot;sourcePoint&quot;/&gt;&lt;mxPoint x=&quot;81.4&quot; y=&quot;199.6&quot; as=&quot;targetPoint&quot;/&gt;&lt;/mxGeometry&gt;&lt;/mxCell&gt;&lt;mxCell id=&quot;46&quot; value=&quot;&quot; style=&quot;endArrow=none;html=1;exitX=0.131;exitY=1.03;exitDx=0;exitDy=0;exitPerimeter=0;&quot; edge=&quot;1&quot; parent=&quot;1&quot;&gt;&lt;mxGeometry width=&quot;50&quot; height=&quot;50&quot; relative=&quot;1&quot; as=&quot;geometry&quot;&gt;&lt;mxPoint x=&quot;120.00000000000014&quot; y=&quot;282.39999999999986&quot; as=&quot;sourcePoint&quot;/&gt;&lt;mxPoint x=&quot;121.4&quot; y=&quot;200&quot; as=&quot;targetPoint&quot;/&gt;&lt;/mxGeometry&gt;&lt;/mxCell&gt;&lt;mxCell id=&quot;47&quot; value=&quot;&quot; style=&quot;endArrow=none;html=1;exitX=0.131;exitY=1.03;exitDx=0;exitDy=0;exitPerimeter=0;&quot; edge=&quot;1&quot; parent=&quot;1&quot;&gt;&lt;mxGeometry width=&quot;50&quot; height=&quot;50&quot; relative=&quot;1&quot; as=&quot;geometry&quot;&gt;&lt;mxPoint x=&quot;160.00000000000014&quot; y=&quot;281.1999999999999&quot; as=&quot;sourcePoint&quot;/&gt;&lt;mxPoint x=&quot;161.4&quot; y=&quot;198.8&quot; as=&quot;targetPoint&quot;/&gt;&lt;/mxGeometry&gt;&lt;/mxCell&gt;&lt;mxCell id=&quot;48&quot; value=&quot;&quot; style=&quot;endArrow=none;html=1;exitX=0.131;exitY=1.03;exitDx=0;exitDy=0;exitPerimeter=0;&quot; edge=&quot;1&quot; parent=&quot;1&quot;&gt;&lt;mxGeometry width=&quot;50&quot; height=&quot;50&quot; relative=&quot;1&quot; as=&quot;geometry&quot;&gt;&lt;mxPoint x=&quot;200.00000000000014&quot; y=&quot;282.39999999999986&quot; as=&quot;sourcePoint&quot;/&gt;&lt;mxPoint x=&quot;201.4&quot; y=&quot;200&quot; as=&quot;targetPoint&quot;/&gt;&lt;/mxGeometry&gt;&lt;/mxCell&gt;&lt;mxCell id=&quot;49&quot; value=&quot;&quot; style=&quot;endArrow=none;html=1;exitX=0.131;exitY=1.03;exitDx=0;exitDy=0;exitPerimeter=0;&quot; edge=&quot;1&quot; parent=&quot;1&quot;&gt;&lt;mxGeometry width=&quot;50&quot; height=&quot;50&quot; relative=&quot;1&quot; as=&quot;geometry&quot;&gt;&lt;mxPoint x=&quot;-79.99999999999986&quot; y=&quot;282.39999999999986&quot; as=&quot;sourcePoint&quot;/&gt;&lt;mxPoint x=&quot;-78.6&quot; y=&quot;200&quot; as=&quot;targetPoint&quot;/&gt;&lt;/mxGeometry&gt;&lt;/mxCell&gt;&lt;mxCell id=&quot;52&quot; value=&quot;&quot; style=&quot;endArrow=classic;html=1;&quot; edge=&quot;1&quot; parent=&quot;1&quot;&gt;&lt;mxGeometry width=&quot;50&quot; height=&quot;50&quot; relative=&quot;1&quot; as=&quot;geometry&quot;&gt;&lt;mxPoint x=&quot;-220&quot; y=&quot;239.67&quot; as=&quot;sourcePoint&quot;/&gt;&lt;mxPoint x=&quot;-140&quot; y=&quot;239.67&quot; as=&quot;targetPoint&quot;/&gt;&lt;/mxGeometry&gt;&lt;/mxCell&gt;&lt;mxCell id=&quot;53&quot; value=&quot;&quot; style=&quot;endArrow=classic;html=1;&quot; edge=&quot;1&quot; parent=&quot;1&quot;&gt;&lt;mxGeometry width=&quot;50&quot; height=&quot;50&quot; relative=&quot;1&quot; as=&quot;geometry&quot;&gt;&lt;mxPoint x=&quot;260&quot; y=&quot;239.67&quot; as=&quot;sourcePoint&quot;/&gt;&lt;mxPoint x=&quot;340&quot; y=&quot;239.67&quot; as=&quot;targetPoint&quot;/&gt;&lt;/mxGeometry&gt;&lt;/mxCell&gt;&lt;/root&gt;&lt;/mxGraphModel&gt;"><style type="text/css"></style><path d="M 67.3 1.94 C 67.3 1.94 67.3 1.94 67.3 1.94 M 67.3 1.94 C 67.3 1.94 67.3 1.94 67.3 1.94 M 67.69 7.58 C 69.22 5.27 71.79 3.29 72.94 1.54 M 67.69 7.58 C 69.3 5.94 70.61 3.86 72.94 1.54 M 67.43 13.98 C 70.07 10.8 74.47 7.12 77.93 1.9 M 67.43 13.98 C 70.12 10.65 72.74 7.81 77.93 1.9 M 67.82 19.62 C 73.94 14.82 80.42 6.8 83.57 1.51 M 67.82 19.62 C 73.25 13 79.59 6.12 83.57 1.51 M 67.56 26.02 C 74.2 18.65 79.5 13.81 88.56 1.87 M 67.56 26.02 C 73.33 20.55 77.8 12.78 88.56 1.87 M 67.3 32.41 C 75.86 21.39 86.3 9.01 94.2 1.47 M 67.3 32.41 C 73.33 24.88 80 18.16 94.2 1.47 M 67.69 38.06 C 74.29 29.25 80.37 23.53 99.19 1.83 M 67.69 38.06 C 78.48 26.5 87.18 14.33 99.19 1.83 M 67.43 44.46 C 80.4 30.84 92.16 18.73 104.83 1.44 M 67.43 44.46 C 77.98 31.19 88.06 20.54 104.83 1.44 M 67.17 50.85 C 81.19 33.55 97.73 15.53 109.82 1.8 M 67.17 50.85 C 80.81 34.49 95.66 19.99 109.82 1.8 M 67.57 56.5 C 75.79 45.07 88.81 34.34 115.46 1.4 M 67.57 56.5 C 78.3 43.13 91.59 29.38 115.46 1.4 M 67.31 62.89 C 83.44 43.74 96.76 26.12 120.45 1.76 M 67.31 62.89 C 87.08 41.05 106.11 18.27 120.45 1.76 M 67.7 68.54 C 85.29 49.33 103.22 30.31 126.09 1.37 M 67.7 68.54 C 85.73 46.4 104.78 24.85 126.09 1.37 M 67.44 74.94 C 85.67 52.05 107.48 31.05 131.08 1.73 M 67.44 74.94 C 86.38 52.21 104.72 32.22 131.08 1.73 M 67.18 81.33 C 91.29 52.65 116.98 20.3 136.72 1.33 M 67.18 81.33 C 85.8 60.46 104.49 39.72 136.72 1.33 M 70.2 83.96 C 88 64.15 105.76 44.82 141.71 1.69 M 70.2 83.96 C 91.76 58.12 111.61 33.81 141.71 1.69 M 75.18 84.32 C 97.77 59.51 118.05 33.61 146.69 2.05 M 75.18 84.32 C 96 59.95 119.01 34.95 146.69 2.05 M 80.83 83.92 C 103.64 60.04 121.32 35.66 152.34 1.66 M 80.83 83.92 C 104.87 56.45 127.47 31.08 152.34 1.66 M 85.81 84.28 C 112.83 55.7 133.97 28.5 157.32 2.02 M 85.81 84.28 C 112.09 52.05 140.03 20.33 157.32 2.02 M 91.46 83.89 C 120.12 50.69 145.66 21.63 162.97 1.62 M 91.46 83.89 C 113.7 57.74 134.69 33.09 162.97 1.62 M 96.44 84.25 C 124.49 50.22 150.42 19.95 167.95 1.98 M 96.44 84.25 C 122.12 54.95 145.72 26.3 167.95 1.98 M 102.09 83.85 C 125.06 60.28 145.8 32.89 173.6 1.59 M 102.09 83.85 C 123.37 59.82 142.76 37.49 173.6 1.59 M 107.07 84.21 C 131.17 56.68 151.41 32.08 178.58 1.95 M 107.07 84.21 C 135.34 52.78 163.03 21.92 178.58 1.95 M 112.72 83.82 C 134.24 59.32 152.98 36.37 184.23 1.56 M 112.72 83.82 C 137.01 56.97 158.17 31.21 184.23 1.56 M 117.7 84.18 C 138.21 62.35 157.97 37.69 189.21 1.92 M 117.7 84.18 C 141.12 55.35 165.07 27.56 189.21 1.92 M 123.35 83.78 C 140.74 64.82 159.27 46 194.86 1.52 M 123.35 83.78 C 150.94 53.01 176.57 23.81 194.86 1.52 M 128.33 84.14 C 155.23 51.86 180.06 22.63 199.84 1.88 M 128.33 84.14 C 143.52 67.03 157.41 50.67 199.84 1.88 M 133.98 83.75 C 157.83 52.26 186.69 25.08 205.49 1.49 M 133.98 83.75 C 148.82 66.65 161.66 49.06 205.49 1.49 M 138.96 84.11 C 165.72 51.99 192.72 23.32 210.47 1.85 M 138.96 84.11 C 156.73 63.31 174.67 42.14 210.47 1.85 M 144.61 83.72 C 164.12 60.37 183.86 37.13 216.12 1.45 M 144.61 83.72 C 166.39 59.77 186.37 35.16 216.12 1.45 M 149.59 84.08 C 165.17 63.3 181.94 45.14 221.1 1.81 M 149.59 84.08 C 171.01 59.06 192.48 36.08 221.1 1.81 M 155.24 83.68 C 179.99 57.44 203.51 29.2 226.75 1.42 M 155.24 83.68 C 178.52 56.51 202.59 29.24 226.75 1.42 M 160.22 84.04 C 187.43 52.11 212.49 21.86 231.73 1.78 M 160.22 84.04 C 175.77 66.18 190.18 50.38 231.73 1.78 M 165.87 83.65 C 186.17 61.6 204.01 39.14 237.38 1.38 M 165.87 83.65 C 187.53 59.34 210.18 32.95 237.38 1.38 M 170.85 84.01 C 194.15 54.21 220.37 26.19 242.36 1.74 M 170.85 84.01 C 186.43 66.07 201.24 48.52 242.36 1.74 M 175.84 84.37 C 204.14 52.02 232.72 20 248.01 1.35 M 175.84 84.37 C 191.24 66.93 205.69 48.82 248.01 1.35 M 181.48 83.97 C 211.42 50.7 240.72 18.3 252.99 1.71 M 181.48 83.97 C 197.85 64.68 214.62 46.16 252.99 1.71 M 186.47 84.33 C 212.67 55.44 234.64 30.5 257.98 2.07 M 186.47 84.33 C 212.68 53.81 238.84 24.07 257.98 2.07 M 192.11 83.94 C 216.98 52.68 244.43 24.92 263.62 1.67 M 192.11 83.94 C 213.67 60.51 233.83 38.01 263.62 1.67 M 197.1 84.3 C 223.25 54.31 248.91 25.8 268.61 2.03 M 197.1 84.3 C 217.47 61.78 236.63 38.91 268.61 2.03 M 202.74 83.9 C 222.11 59.76 245.96 36.34 274.25 1.64 M 202.74 83.9 C 223.31 59.24 242.46 37.21 274.25 1.64 M 207.73 84.26 C 227.28 61.12 249.27 40.73 279.24 2 M 207.73 84.26 C 233.83 52.95 261.53 23.3 279.24 2 M 213.37 83.87 C 233.61 62.32 252.02 41.32 284.88 1.61 M 213.37 83.87 C 235.52 57.99 257.27 32.8 284.88 1.61 M 218.36 84.23 C 235.96 64.82 251.18 49.22 289.87 1.97 M 218.36 84.23 C 238.76 62.4 258.75 38.67 289.87 1.97 M 224 83.83 C 250.9 54.3 277.71 23.64 295.51 1.57 M 224 83.83 C 244.23 60.51 262.49 39.68 295.51 1.57 M 228.99 84.19 C 255.08 56.56 280.88 26.97 300.5 1.93 M 228.99 84.19 C 252.78 57.19 278.14 27.74 300.5 1.93 M 234.63 83.8 C 258.03 61.32 278.79 35.37 306.14 1.54 M 234.63 83.8 C 252.74 63.35 269.53 42.07 306.14 1.54 M 239.62 84.16 C 264.01 56.91 290.71 27.81 311.13 1.9 M 239.62 84.16 C 260.74 59.93 284.08 34.95 311.13 1.9 M 245.26 83.77 C 272.18 52.35 302.89 18.05 316.77 1.5 M 245.26 83.77 C 273.11 51.31 299.17 21.15 316.77 1.5 M 250.25 84.13 C 274.72 57.98 294.41 31.82 321.76 1.86 M 250.25 84.13 C 266.06 64.99 281.97 48.71 321.76 1.86 M 255.89 83.73 C 283.2 51.32 312.06 21.24 327.4 1.47 M 255.89 83.73 C 283.86 51.9 309.56 22.73 327.4 1.47 M 260.88 84.09 C 278.33 60.71 297.98 39.69 332.39 1.83 M 260.88 84.09 C 285.35 55.03 309.8 28.11 332.39 1.83 M 266.52 83.7 C 283.16 65.3 300.64 48.63 338.03 1.43 M 266.52 83.7 C 293.57 53.36 320.12 23.17 338.03 1.43 M 271.51 84.06 C 288.31 66.48 301.97 52.16 343.02 1.79 M 271.51 84.06 C 291.91 61.01 309.24 39.01 343.02 1.79 M 277.15 83.66 C 296.26 58.91 316.41 36.3 348.66 1.4 M 277.15 83.66 C 297.24 60.82 317.89 37.12 348.66 1.4 M 282.14 84.02 C 304.28 58.18 324.47 34.85 353.65 1.76 M 282.14 84.02 C 307.88 54.57 333.06 24.94 353.65 1.76 M 287.13 84.38 C 315.32 51.88 340.89 19.94 359.29 1.36 M 287.13 84.38 C 308.81 61.09 327.98 37.03 359.29 1.36 M 292.77 83.99 C 313.47 58.93 334.81 34.05 364.28 1.72 M 292.77 83.99 C 312.4 61.07 334.05 37.64 364.28 1.72 M 297.76 84.35 C 320.24 59.66 342.5 35.63 369.93 1.33 M 297.76 84.35 C 320.42 58.55 342.29 32.94 369.93 1.33 M 303.4 83.95 C 321.72 59.46 342.6 34.61 374.91 1.69 M 303.4 83.95 C 329.76 53.24 356.08 23.72 374.91 1.69 M 308.39 84.31 C 331.81 60.65 351.72 36.11 379.9 2.05 M 308.39 84.31 C 333.29 57.34 354.82 31.04 379.9 2.05 M 314.03 83.92 C 342.33 53.82 365.16 24.27 385.54 1.66 M 314.03 83.92 C 342.26 51.44 370.37 19.37 385.54 1.66 M 319.02 84.28 C 343.97 52.65 370.71 21.46 390.53 2.02 M 319.02 84.28 C 339.91 60.47 360.71 36.85 390.53 2.02 M 324.66 83.88 C 348.33 57.02 374.3 28.02 396.17 1.62 M 324.66 83.88 C 351.78 54.82 377.07 24.01 396.17 1.62 M 329.65 84.24 C 346.37 68.25 359.98 47.57 401.16 1.98 M 329.65 84.24 C 357.79 50.56 386.49 18.46 401.16 1.98 M 335.29 83.85 C 354.54 62.95 374.16 40.84 406.8 1.59 M 335.29 83.85 C 351.44 65.84 367.46 47.44 406.8 1.59 M 340.28 84.21 C 362.34 60.22 379.79 36.18 411.79 1.95 M 340.28 84.21 C 356.56 67.49 369.56 49.34 411.79 1.95 M 345.92 83.81 C 365.71 61.58 386.17 37.13 417.43 1.55 M 345.92 83.81 C 364.56 62.18 384.71 38.64 417.43 1.55 M 350.91 84.18 C 371.54 57.82 393.31 34.77 422.42 1.91 M 350.91 84.18 C 373.41 56.19 399.05 28.51 422.42 1.91 M 356.55 83.78 C 380.51 56.05 403.63 28.56 428.06 1.52 M 356.55 83.78 C 381.11 55.7 405.93 26.73 428.06 1.52 M 361.54 84.14 C 388.17 53.06 415.53 24.38 433.05 1.88 M 361.54 84.14 C 388.75 54.59 413.26 25.19 433.05 1.88 M 367.18 83.75 C 388.52 58.06 411.82 31.1 438.69 1.48 M 367.18 83.75 C 388.66 58.1 410.89 33.58 438.69 1.48 M 372.17 84.11 C 388.05 66.95 402.25 51.44 443.68 1.84 M 372.17 84.11 C 393.75 60.46 416.51 34.3 443.68 1.84 M 377.81 83.71 C 402.56 55.28 425.8 27.88 449.32 1.45 M 377.81 83.71 C 397.7 61.2 416.78 37.31 449.32 1.45 M 382.8 84.07 C 409.44 55.49 433.59 27.24 454.31 1.81 M 382.8 84.07 C 408.61 54.97 433.9 24.69 454.31 1.81 M 388.44 83.68 C 403.35 64.67 419.28 51.55 459.95 1.41 M 388.44 83.68 C 404.24 66.23 421.1 46.78 459.95 1.41 M 393.43 84.04 C 422.99 51.63 450.31 17.77 464.94 1.77 M 393.43 84.04 C 420.96 51.84 448.02 19.36 464.94 1.77 M 399.07 83.64 C 425.8 54.28 451.32 24.1 470.58 1.38 M 399.07 83.64 C 413.62 66.12 428.84 49.19 470.58 1.38 M 404.06 84 C 425.87 61.9 444.99 37.38 475.57 1.74 M 404.06 84 C 430.86 53.02 459.69 22.11 475.57 1.74 M 409.05 84.36 C 435.75 53.83 460.01 26.55 481.21 1.34 M 409.05 84.36 C 431.26 59.04 452.37 33.59 481.21 1.34 M 414.69 83.97 C 433.44 61.37 454.49 40 486.2 1.7 M 414.69 83.97 C 430.85 67.4 444.48 48.86 486.2 1.7 M 419.68 84.33 C 443.22 53.54 469.81 23.68 491.19 2.06 M 419.68 84.33 C 441.4 61.52 461.67 37.86 491.19 2.06 M 425.32 83.93 C 448.7 56.32 469.67 30.9 496.83 1.67 M 425.32 83.93 C 445.77 60.95 466.72 38.19 496.83 1.67 M 430.31 84.29 C 446.95 61.53 466.09 40.88 501.82 2.03 M 430.31 84.29 C 455.37 55.39 480.68 25.72 501.82 2.03 M 435.95 83.9 C 455.53 61.06 475.76 35.32 507.46 1.64 M 435.95 83.9 C 457.67 61.04 477.33 36.7 507.46 1.64 M 440.94 84.26 C 467.19 56.03 490.94 30.14 510.48 4.26 M 440.94 84.26 C 467.23 54.05 494.1 21.86 510.48 4.26 M 446.58 83.86 C 458.69 71.16 472.21 52.87 510.22 10.66 M 446.58 83.86 C 464.48 63.59 481.15 43.93 510.22 10.66 M 451.57 84.22 C 468.65 66.83 480.82 48.51 510.61 16.3 M 451.57 84.22 C 469.18 62.14 487.29 41.61 510.61 16.3 M 457.21 83.83 C 475.65 60.49 497.06 40.74 510.35 22.7 M 457.21 83.83 C 472.4 65.9 488.68 46.37 510.35 22.7 M 462.2 84.19 C 471.09 70.55 481.98 57.93 510.75 28.34 M 462.2 84.19 C 476.8 65.96 493.1 50.09 510.75 28.34 M 467.84 83.8 C 476.77 72.55 487.31 63.05 510.48 34.74 M 467.84 83.8 C 477.74 70.92 488.12 58.86 510.48 34.74 M 472.83 84.16 C 482.27 74.41 488.63 66.51 510.22 41.14 M 472.83 84.16 C 480.41 74.88 488.64 65.95 510.22 41.14 M 478.47 83.76 C 486.8 73.83 497.6 59.16 510.62 46.78 M 478.47 83.76 C 485.53 75.88 492.56 66.24 510.62 46.78 M 483.46 84.12 C 494.83 73.59 502.99 61.88 510.36 53.18 M 483.46 84.12 C 492.64 73.78 501.81 61.6 510.36 53.18 M 489.1 83.73 C 494.55 73.98 501.54 66.77 510.75 58.82 M 489.1 83.73 C 495.1 76.19 502.39 69.36 510.75 58.82 M 494.09 84.09 C 495.69 81.66 501.74 76.74 510.49 65.22 M 494.09 84.09 C 497.39 79.2 502.95 74.06 510.49 65.22 M 499.73 83.69 C 502.89 79.94 505.38 79.32 510.23 71.62 M 499.73 83.69 C 503.37 79.26 507.39 74.15 510.23 71.62 M 504.72 84.05 C 505.93 82.03 506.8 81.63 510.62 77.26 M 504.72 84.05 C 506.82 81.19 508.69 79.45 510.62 77.26" fill="none" stroke="#2a2a2a00" stroke-linejoin="round" stroke-linecap="round" stroke-miterlimit="10" pointer-events="none"/><path d="M 67.5 1.7 M 67.5 1.7 C 159.79 0.65 254.57 1.42 507.5 1.7 M 67.5 1.7 C 229.12 2.52 390.86 2.34 507.5 1.7 M 507.5 81.7 M 507.5 81.7 C 400.39 80.43 294.67 80.84 67.5 81.7 M 507.5 81.7 C 416.93 83.4 326.15 84.16 67.5 81.7" fill="none" stroke="#f0f0f0" stroke-linejoin="round" stroke-linecap="round" stroke-miterlimit="10" pointer-events="none"/><path d="M 186.5 84.1 M 186.5 84.1 C 188.16 66.92 189.14 48.2 187.9 1.7 M 186.5 84.1 C 186.65 63.41 185.65 44.99 187.9 1.7" fill="none" stroke="#f0f0f0" stroke-linejoin="round" stroke-linecap="round" stroke-miterlimit="10" pointer-events="none"/><path d="M 227.5 84.1 M 227.5 84.1 C 227.87 65.87 227.68 47.35 228.9 1.7 M 227.5 84.1 C 228.49 57.69 229.16 32.54 228.9 1.7" fill="none" stroke="#f0f0f0" stroke-linejoin="round" stroke-linecap="round" stroke-miterlimit="10" pointer-events="none"/><path d="M 267.5 84.1 M 267.5 84.1 C 266.59 64.85 269.22 50.52 268.9 1.7 M 267.5 84.1 C 269.67 51.96 270.02 20.1 268.9 1.7" fill="none" stroke="#f0f0f0" stroke-linejoin="round" stroke-linecap="round" stroke-miterlimit="10" pointer-events="none"/><path d="M 307.5 83.7 M 307.5 83.7 C 309.31 67.42 306.76 49.29 308.9 1.3 M 307.5 83.7 C 308.58 62.34 308.32 42.25 308.9 1.3" fill="none" stroke="#f0f0f0" stroke-linejoin="round" stroke-linecap="round" stroke-miterlimit="10" pointer-events="none"/><path d="M 347.5 84.1 M 347.5 84.1 C 348.02 66.77 348.3 48.84 348.9 1.7 M 347.5 84.1 C 347.76 57.01 349.18 30.21 348.9 1.7" fill="none" stroke="#f0f0f0" stroke-linejoin="round" stroke-linecap="round" stroke-miterlimit="10" pointer-events="none"/><path d="M 387.5 82.9 M 387.5 82.9 C 386.74 64.54 389.84 46.81 388.9 0.5 M 387.5 82.9 C 388.95 50.09 388.04 16.57 388.9 0.5" fill="none" stroke="#f0f0f0" stroke-linejoin="round" stroke-linecap="round" stroke-miterlimit="10" pointer-events="none"/><path d="M 427.5 84.1 M 427.5 84.1 C 429.46 64.69 427.38 51.16 428.9 1.7 M 427.5 84.1 C 427.85 62.04 428.35 40.29 428.9 1.7" fill="none" stroke="#f0f0f0" stroke-linejoin="round" stroke-linecap="round" stroke-miterlimit="10" pointer-events="none"/><path d="M 147.5 84.1 M 147.5 84.1 C 148.18 67.66 148.92 50.33 148.9 1.7 M 147.5 84.1 C 149.04 56.34 149.21 27.87 148.9 1.7" fill="none" stroke="#f0f0f0" stroke-linejoin="round" stroke-linecap="round" stroke-miterlimit="10" pointer-events="none"/><path d="M 7.5 41.37 M 7.5 41.37 C 24.28 40.89 40.08 41.8 81.13 41.37 M 7.5 41.37 C 27.13 41.12 46.62 42.22 81.13 41.37" fill="none" stroke="#f0f0f0" stroke-linejoin="round" stroke-linecap="round" stroke-miterlimit="10" pointer-events="none"/><path d="M 79.51 37.72 C 79.51 37.72 79.51 37.72 79.51 37.72 M 79.51 37.72 C 79.51 37.72 79.51 37.72 79.51 37.72 M 81.21 41.86 C 81.88 41.4 82.39 40.97 83.18 39.59 M 81.21 41.86 C 82.06 41 82.71 39.95 83.18 39.59" fill="none" stroke="#f0f0f0" stroke-linejoin="round" stroke-linecap="round" stroke-miterlimit="10" pointer-events="none"/><path d="M 86.38 41.37 M 86.38 41.37 C 84.83 41.74 83.01 43.5 79.38 44.87 M 86.38 41.37 C 83.48 42.75 81.05 43.76 79.38 44.87 M 79.38 44.87 C 80.07 43.7 80.76 42.07 81.13 41.37 M 79.38 44.87 C 79.86 43.67 80.44 42.44 81.13 41.37 M 81.13 41.37 C 80.43 40.29 79.8 39.15 79.38 37.87 M 81.13 41.37 C 80.63 39.9 79.96 38.92 79.38 37.87 M 79.38 37.87 C 80.42 38.57 83.12 39.97 86.38 41.37 M 79.38 37.87 C 80.81 38.79 82.73 39.29 86.38 41.37" fill="none" stroke="#f0f0f0" stroke-linejoin="round" stroke-linecap="round" stroke-miterlimit="10" pointer-events="none"/><path d="M 487.5 41.37 M 487.5 41.37 C 503.14 40.45 517.76 41.55 561.13 41.37 M 487.5 41.37 C 513.62 40.89 538 41.2 561.13 41.37" fill="none" stroke="#f0f0f0" stroke-linejoin="round" stroke-linecap="round" stroke-miterlimit="10" pointer-events="none"/><path d="M 559.57 37.66 C 559.57 37.66 559.57 37.66 559.57 37.66 M 559.57 37.66 C 559.57 37.66 559.57 37.66 559.57 37.66 M 561.27 41.79 C 561.92 40.95 562.33 40.24 563.24 39.53 M 561.27 41.79 C 561.96 40.94 562.69 40.22 563.24 39.53" fill="none" stroke="#f0f0f0" stroke-linejoin="round" stroke-linecap="round" stroke-miterlimit="10" pointer-events="none"/><path d="M 566.38 41.37 M 566.38 41.37 C 564.85 42.06 564.08 42.7 559.38 44.87 M 566.38 41.37 C 565.13 42.27 563.42 43.06 559.38 44.87 M 559.38 44.87 C 559.7 43.93 560.39 42.86 561.13 41.37 M 559.38 44.87 C 559.94 43.85 560.46 42.76 561.13 41.37 M 561.13 41.37 C 560.66 40.38 560.06 38.54 559.38 37.87 M 561.13 41.37 C 560.58 40.57 560.11 39.35 559.38 37.87 M 559.38 37.87 C 561.61 39.85 563.76 41.01 566.38 41.37 M 559.38 37.87 C 562.42 39.34 565.09 40.55 566.38 41.37" fill="none" stroke="#f0f0f0" stroke-linejoin="round" stroke-linecap="round" stroke-miterlimit="10" pointer-events="none"/></svg>