<svg xmlns="http://www.w3.org/2000/svg" version="1.1" height="401.0110444568453px" width="204.63996233258933px" viewBox="-10 -10 224.63996233258933 421.0110444568453" content="&lt;mxGraphModel dx=&quot;866&quot; dy=&quot;630&quot; grid=&quot;1&quot; gridSize=&quot;10&quot; guides=&quot;1&quot; tooltips=&quot;1&quot; connect=&quot;1&quot; arrows=&quot;1&quot; fold=&quot;1&quot; page=&quot;0&quot; pageScale=&quot;1&quot; pageWidth=&quot;827&quot; pageHeight=&quot;1169&quot; math=&quot;0&quot; shadow=&quot;0&quot;&gt;&lt;root&gt;&lt;mxCell id=&quot;0&quot;/&gt;&lt;mxCell id=&quot;1&quot; parent=&quot;0&quot;/&gt;&lt;mxCell id=&quot;3&quot; value=&quot;&quot; style=&quot;endArrow=none;html=1;&quot; edge=&quot;1&quot; parent=&quot;1&quot;&gt;&lt;mxGeometry width=&quot;50&quot; height=&quot;50&quot; relative=&quot;1&quot; as=&quot;geometry&quot;&gt;&lt;mxPoint x=&quot;30&quot; y=&quot;320&quot; as=&quot;sourcePoint&quot;/&gt;&lt;mxPoint x=&quot;90&quot; y=&quot;320&quot; as=&quot;targetPoint&quot;/&gt;&lt;/mxGeometry&gt;&lt;/mxCell&gt;&lt;mxCell id=&quot;23&quot; value=&quot;&quot; style=&quot;shape=partialRectangle;whiteSpace=wrap;html=1;bottom=1;right=1;left=1;top=0;fillColor=none;routingCenterX=-0.5;&quot; vertex=&quot;1&quot; parent=&quot;1&quot;&gt;&lt;mxGeometry x=&quot;30&quot; y=&quot;40&quot; width=&quot;60&quot; height=&quot;320&quot; as=&quot;geometry&quot;/&gt;&lt;/mxCell&gt;&lt;mxCell id=&quot;24&quot; value=&quot;&quot; style=&quot;endArrow=none;html=1;&quot; edge=&quot;1&quot; parent=&quot;1&quot;&gt;&lt;mxGeometry width=&quot;50&quot; height=&quot;50&quot; relative=&quot;1&quot; as=&quot;geometry&quot;&gt;&lt;mxPoint x=&quot;30&quot; y=&quot;199.5&quot; as=&quot;sourcePoint&quot;/&gt;&lt;mxPoint x=&quot;90&quot; y=&quot;199.5&quot; as=&quot;targetPoint&quot;/&gt;&lt;/mxGeometry&gt;&lt;/mxCell&gt;&lt;mxCell id=&quot;25&quot; value=&quot;&quot; style=&quot;endArrow=none;html=1;&quot; edge=&quot;1&quot; parent=&quot;1&quot;&gt;&lt;mxGeometry width=&quot;50&quot; height=&quot;50&quot; relative=&quot;1&quot; as=&quot;geometry&quot;&gt;&lt;mxPoint x=&quot;30&quot; y=&quot;240&quot; as=&quot;sourcePoint&quot;/&gt;&lt;mxPoint x=&quot;90&quot; y=&quot;240&quot; as=&quot;targetPoint&quot;/&gt;&lt;/mxGeometry&gt;&lt;/mxCell&gt;&lt;mxCell id=&quot;26&quot; value=&quot;&quot; style=&quot;endArrow=none;html=1;&quot; edge=&quot;1&quot; parent=&quot;1&quot;&gt;&lt;mxGeometry width=&quot;50&quot; height=&quot;50&quot; relative=&quot;1&quot; as=&quot;geometry&quot;&gt;&lt;mxPoint x=&quot;30&quot; y=&quot;280&quot; as=&quot;sourcePoint&quot;/&gt;&lt;mxPoint x=&quot;90&quot; y=&quot;280&quot; as=&quot;targetPoint&quot;/&gt;&lt;/mxGeometry&gt;&lt;/mxCell&gt;&lt;mxCell id=&quot;34&quot; value=&quot;&quot; style=&quot;endArrow=none;html=1;&quot; edge=&quot;1&quot; parent=&quot;1&quot;&gt;&lt;mxGeometry width=&quot;50&quot; height=&quot;50&quot; relative=&quot;1&quot; as=&quot;geometry&quot;&gt;&lt;mxPoint x=&quot;30&quot; y=&quot;120.5&quot; as=&quot;sourcePoint&quot;/&gt;&lt;mxPoint x=&quot;90&quot; y=&quot;120.5&quot; as=&quot;targetPoint&quot;/&gt;&lt;/mxGeometry&gt;&lt;/mxCell&gt;&lt;mxCell id=&quot;35&quot; value=&quot;&quot; style=&quot;endArrow=none;html=1;&quot; edge=&quot;1&quot; parent=&quot;1&quot;&gt;&lt;mxGeometry width=&quot;50&quot; height=&quot;50&quot; relative=&quot;1&quot; as=&quot;geometry&quot;&gt;&lt;mxPoint x=&quot;30&quot; y=&quot;160.5&quot; as=&quot;sourcePoint&quot;/&gt;&lt;mxPoint x=&quot;90&quot; y=&quot;160.5&quot; as=&quot;targetPoint&quot;/&gt;&lt;/mxGeometry&gt;&lt;/mxCell&gt;&lt;mxCell id=&quot;36&quot; value=&quot;&quot; style=&quot;curved=1;endArrow=classic;html=1;&quot; edge=&quot;1&quot; parent=&quot;1&quot;&gt;&lt;mxGeometry width=&quot;50&quot; height=&quot;50&quot; relative=&quot;1&quot; as=&quot;geometry&quot;&gt;&lt;mxPoint x=&quot;-40&quot; y=&quot;39&quot; as=&quot;sourcePoint&quot;/&gt;&lt;mxPoint x=&quot;50&quot; y=&quot;39&quot; as=&quot;targetPoint&quot;/&gt;&lt;Array as=&quot;points&quot;&gt;&lt;mxPoint x=&quot;-40&quot; y=&quot;-40&quot;/&gt;&lt;mxPoint x=&quot;50&quot; y=&quot;-40&quot;/&gt;&lt;/Array&gt;&lt;/mxGeometry&gt;&lt;/mxCell&gt;&lt;mxCell id=&quot;37&quot; value=&quot;&quot; style=&quot;curved=1;endArrow=classic;html=1;&quot; edge=&quot;1&quot; parent=&quot;1&quot;&gt;&lt;mxGeometry width=&quot;50&quot; height=&quot;50&quot; relative=&quot;1&quot; as=&quot;geometry&quot;&gt;&lt;mxPoint x=&quot;70&quot; y=&quot;40&quot; as=&quot;sourcePoint&quot;/&gt;&lt;mxPoint x=&quot;160&quot; y=&quot;40&quot; as=&quot;targetPoint&quot;/&gt;&lt;Array as=&quot;points&quot;&gt;&lt;mxPoint x=&quot;70&quot; y=&quot;-39&quot;/&gt;&lt;mxPoint x=&quot;160&quot; y=&quot;-39&quot;/&gt;&lt;/Array&gt;&lt;/mxGeometry&gt;&lt;/mxCell&gt;&lt;/root&gt;&lt;/mxGraphModel&gt;"><style type="text/css"></style><path d="M 70.64 360.51 M 70.64 360.51 C 82.96 361.78 94.46 362.12 130.64 360.51 M 70.64 360.51 C 87.94 360.74 107.34 360.63 130.64 360.51" fill="none" stroke="#f0f0f0" stroke-linejoin="round" stroke-linecap="round" stroke-miterlimit="10" pointer-events="none"/><path d="M 70.64 80.51 M 130.64 80.51 M 130.64 80.51 C 131.04 147.83 131.38 214.51 130.64 400.51 M 130.64 80.51 C 131.82 159.95 132.21 238.67 130.64 400.51 M 130.64 400.51 C 117.32 401.71 105.61 401.2 70.64 400.51 M 130.64 400.51 C 113.75 400.07 98.04 401.25 70.64 400.51 M 70.64 400.51 C 69.81 272.87 68.42 146.33 70.64 80.51 M 70.64 400.51 C 70.78 333.05 70.99 267.14 70.64 80.51" fill="none" stroke="#f0f0f0" stroke-linejoin="round" stroke-linecap="round" stroke-miterlimit="10" pointer-events="none"/><path d="M 70.64 240.01 M 70.64 240.01 C 84.5 238.8 96.49 241.57 130.64 240.01 M 70.64 240.01 C 90.63 240.85 109.96 241.09 130.64 240.01" fill="none" stroke="#f0f0f0" stroke-linejoin="round" stroke-linecap="round" stroke-miterlimit="10" pointer-events="none"/><path d="M 70.64 280.51 M 70.64 280.51 C 83.36 281.54 94.17 280.52 130.64 280.51 M 70.64 280.51 C 94.14 281.21 117.37 280.66 130.64 280.51" fill="none" stroke="#f0f0f0" stroke-linejoin="round" stroke-linecap="round" stroke-miterlimit="10" pointer-events="none"/><path d="M 70.64 320.51 M 70.64 320.51 C 82.21 320.99 95.86 320.16 130.64 320.51 M 70.64 320.51 C 85.66 321.06 102.78 319.73 130.64 320.51" fill="none" stroke="#f0f0f0" stroke-linejoin="round" stroke-linecap="round" stroke-miterlimit="10" pointer-events="none"/><path d="M 70.64 161.01 M 70.64 161.01 C 85.08 158.91 96.6 159.86 130.64 161.01 M 70.64 161.01 C 91.62 162.05 113.7 162.06 130.64 161.01" fill="none" stroke="#f0f0f0" stroke-linejoin="round" stroke-linecap="round" stroke-miterlimit="10" pointer-events="none"/><path d="M 70.64 201.01 M 70.64 201.01 C 83.94 202.36 94.28 199.5 130.64 201.01 M 70.64 201.01 C 83.13 199.91 97.11 201.13 130.64 201.01" fill="none" stroke="#f0f0f0" stroke-linejoin="round" stroke-linecap="round" stroke-miterlimit="10" pointer-events="none"/><path d="M 0.64 79.51 M 0.64 79.51 C -1.13 27.82 13.83 -0.03 45.64 0.51 M 0.64 79.51 C 0.92 26.75 17.47 0.42 45.64 0.51 M 45.64 0.51 C 74.13 2.34 91.14 23.31 90.64 73.14 M 45.64 0.51 C 76.49 -0.1 88.49 24.49 90.64 73.14" fill="none" stroke="#f0f0f0" stroke-linejoin="round" stroke-linecap="round" stroke-miterlimit="10" pointer-events="none"/><path d="M 87.22 71.3 C 87.22 71.3 87.22 71.3 87.22 71.3 M 87.22 71.3 C 87.22 71.3 87.22 71.3 87.22 71.3 M 88.92 75.44 C 89.14 74.75 89.89 74.61 90.89 73.17 M 88.92 75.44 C 89.27 74.85 89.88 74.29 90.89 73.17" fill="none" stroke="#f0f0f0" stroke-linejoin="round" stroke-linecap="round" stroke-miterlimit="10" pointer-events="none"/><path d="M 90.64 78.39 M 90.64 78.39 C 89.51 76.8 88.99 74.5 87.14 71.39 M 90.64 78.39 C 89.69 77.04 89.41 75.55 87.14 71.39 M 87.14 71.39 C 88.27 71.44 88.53 72.17 90.64 73.14 M 87.14 71.39 C 88.56 72.15 89.44 72.56 90.64 73.14 M 90.64 73.14 C 91.48 73.04 92.37 71.95 94.14 71.39 M 90.64 73.14 C 91.5 72.58 92.23 72.33 94.14 71.39 M 94.14 71.39 C 93.78 73.72 91.59 74.69 90.64 78.39 M 94.14 71.39 C 93.29 73.88 91.45 75.84 90.64 78.39" fill="none" stroke="#f0f0f0" stroke-linejoin="round" stroke-linecap="round" stroke-miterlimit="10" pointer-events="none"/><path d="M 110.64 80.51 M 110.64 80.51 C 108.87 29.16 126.24 -0.18 155.64 1.51 M 110.64 80.51 C 109.73 29.68 126.51 3.07 155.64 1.51 M 155.64 1.51 C 184.4 0.55 199.54 24.74 200.64 74.14 M 155.64 1.51 C 183.67 -0.41 199.3 23.79 200.64 74.14" fill="none" stroke="#f0f0f0" stroke-linejoin="round" stroke-linecap="round" stroke-miterlimit="10" pointer-events="none"/><path d="M 196.95 72.61 C 196.95 72.61 196.95 72.61 196.95 72.61 M 196.95 72.61 C 196.95 72.61 196.95 72.61 196.95 72.61 M 199.31 75.99 C 199.48 75.71 199.9 75.43 200.62 74.48 M 199.31 75.99 C 199.63 75.61 199.89 75.45 200.62 74.48" fill="none" stroke="#f0f0f0" stroke-linejoin="round" stroke-linecap="round" stroke-miterlimit="10" pointer-events="none"/><path d="M 200.64 79.39 M 200.64 79.39 C 199.41 76.96 198.24 75.51 197.14 72.39 M 200.64 79.39 C 200.08 77.82 199.28 76.39 197.14 72.39 M 197.14 72.39 C 198.49 72.68 199.35 74 200.64 74.14 M 197.14 72.39 C 198.1 73.05 199.24 73.34 200.64 74.14 M 200.64 74.14 C 202.1 73.48 202.64 72.6 204.14 72.39 M 200.64 74.14 C 201.62 73.71 202.71 73.07 204.14 72.39 M 204.14 72.39 C 202.49 74.61 201.97 77.21 200.64 79.39 M 204.14 72.39 C 203.08 74.63 201.76 76.48 200.64 79.39" fill="none" stroke="#f0f0f0" stroke-linejoin="round" stroke-linecap="round" stroke-miterlimit="10" pointer-events="none"/></svg>